<?xml version="1.0" encoding="UTF-8"?>
<svg id="_Шар_2" data-name="Шар 2" xmlns="http://www.w3.org/2000/svg" viewBox="0 0 51.98 29.7">
  <defs>
    <style>
      .cls-1 {
        fill: #02a99b;
        fill-rule: evenodd;
      }
    </style>
  </defs>
  <g id="_Шар_1-2" data-name="Шар 1">
    <path class="cls-1" d="M.2,1.34C-.26.82.11,0,.81,0h44.17c3.87,0,7.01,3.14,7.01,7.01v15.69c0,3.87-3.14,7.01-7.01,7.01h-21.7c-.99,0-1.94-.43-2.6-1.17l-2.26-2.54c-.46-.52-.09-1.34.6-1.34h25.95c1.08,0,1.96-.88,1.96-1.96V7.01c0-1.08-.88-1.96-1.96-1.96H5.06c-.99,0-1.94-.43-2.6-1.17L.2,1.34Z"/>
    <path class="cls-1" d="M18.64,1.31l12.92,14.04c.33.36.9.36,1.23,0l11.37-12.13,3.68,3.45-11.37,12.13c-2.34,2.5-6.31,2.48-8.63-.04L14.93,4.72l3.71-3.41Z"/>
    <path class="cls-1" d="M10.02,14.23c-.46-.52-.1-1.34.6-1.34h8.07c.74,0,1.34.6,1.34,1.34v2.37c0,.74-.6,1.34-1.34,1.34h-4.39c-.61,0-1.19-.26-1.6-.71l-2.68-2.99Z"/>
  </g>
</svg>